<?xml version="1.0" encoding="iso-8859-1"?>
<!-- Generator: Adobe Illustrator 19.0.0, SVG Export Plug-In . SVG Version: 6.00 Build 0)  -->
<svg version="1.1" id="Capa_1" xmlns="http://www.w3.org/2000/svg" xmlns:xlink="http://www.w3.org/1999/xlink" x="0px" y="0px"
	 viewBox="0 0 491.52 491.52" style="enable-background:new 0 0 491.52 491.52;" xml:space="preserve">
<circle style="fill:#334D5C;" cx="245.76" cy="245.76" r="245.76"/>
<path style="opacity:0.1;enable-background:new    ;" d="M487.789,288.226L339.885,140.322l-0.066,0.074
	c-19.678-21.723-48.019-35.45-79.621-35.45h-14.746c-59.392,0-107.52,32.819-107.52,92.211v17.869l-13.158,35.277
	c-1.997,3.686-0.922,8.294,2.509,10.701l10.65,10.65v32.103c0,4.779,2.081,9.026,5.346,12.001l52.017,52.017l6.33,18.771
	l98.796,98.796C396.271,463.561,470.781,385.801,487.789,288.226z"/>
<path style="fill:#EBF0F3;" d="M367.72,210.423c-1.107-58.435-48.823-105.463-107.523-105.463h-14.722
	c-59.394,0-107.543,32.788-107.543,92.183v17.898l-13.156,35.288c-1.994,3.687-0.916,8.283,2.511,10.697l10.645,7.5v35.234
	c0,8.995,7.292,16.287,16.287,16.287h0.383c12.703,0,24.418,6.854,30.642,17.928l16.363,48.586H339.67l-11.657-51.6
	c-6.449-16.676-3.159-35.874,9.306-48.692C356.506,266.54,368.277,239.784,367.72,210.423z"/>
<path style="fill:#FCD462;" d="M175.271,177.964c-0.632-10.946,4.326-21.68,11.567-30.229c10.826-12.783,26.98-21.396,44.129-23.53
	c5.459-0.68,10.982-0.728,16.475-1.099c5.657-0.382,11.295-1.107,16.966-1.148c17.291-0.125,34.336,6.299,47.639,16.766
	c13.303,10.467,20.845,25.637,28.574,40.295c19.242,36.493-13.536,49.19-19.175,55.256c-1.483,1.595-2.67,3.534-4.624,4.578
	c-1.602,0.857-3.511,0.992-5.35,1.032c-4.556,0.1-9.123-0.265-13.598-1.086c-3.732-0.685-8.421-1.356-10.603,1.595
	c-1.706,2.308-0.679,5.563,1.046,7.858c1.725,2.295,4.091,4.188,5.324,6.752c1.233,2.564,0.744,6.253-2.011,7.313
	c-6.859-4.904-12.143-11.474-18.098-17.345c-5.955-5.87-13.043-11.269-21.494-12.737c-5.835-1.013-11.835-0.066-17.763-0.258
	c-5.929-0.192-12.383-1.905-15.615-6.619c-3.53-5.148-0.943-13.762-5.243-18.076c-3.378-3.389-10.42-1.874-14.792-2.595
	C185.077,202.453,176.003,190.633,175.271,177.964z"/>
<g>
	<path style="fill:#F6C358;" d="M207.087,197.533c-0.682,0-1.324-0.387-1.591-1.023c-0.696-1.667-1.883-3.204-3.03-4.693
		c-1.872-2.43-3.641-4.728-3.143-7.406c0.331-1.775,1.632-3.362,3.976-4.855c9.948-6.331,21.528-9.994,33.492-10.6
		c0.906-0.095,1.749,0.644,1.799,1.534c0.05,0.893-0.672,1.657-1.618,1.705c-11.346,0.573-22.331,4.053-31.768,10.055
		c-1.508,0.961-2.351,1.876-2.508,2.725c-0.247,1.315,1.044,2.992,2.538,4.927c1.21,1.575,2.585,3.362,3.444,5.41
		c0.348,0.833-0.08,1.778-0.959,2.107C207.512,197.495,207.298,197.533,207.087,197.533z"/>
	<path style="fill:#F6C358;" d="M267.515,150.899c-0.301,0-0.602-0.073-0.876-0.228c-2.187-1.235-3.307-3.955-2.719-6.61
		c0.418-1.867,1.525-3.61,3.488-5.482c5.13-4.899,12.557-7.624,19.819-7.247c0.943,0.048,1.669,0.812,1.618,1.705
		c-0.05,0.893-0.806,1.61-1.799,1.534c-6.249-0.314-12.75,2.037-17.211,6.297c-1.475,1.41-2.291,2.636-2.565,3.863
		c-0.281,1.277,0.2,2.634,1.12,3.153c0.813,0.459,1.08,1.455,0.595,2.225C268.665,150.617,268.097,150.899,267.515,150.899z"/>
	<path style="fill:#F6C358;" d="M241.065,155.992c-3.351,0-6.604-2.034-9.173-5.735c-0.565-0.815-1.09-1.667-1.612-2.52
		c-1.117-1.825-2.173-3.549-3.662-4.845c-0.695-0.609-0.739-1.635-0.1-2.294c0.642-0.656,1.725-0.697,2.421-0.095
		c1.869,1.632,3.106,3.654,4.303,5.606c0.488,0.799,0.977,1.6,1.508,2.364c0.97,1.397,2.832,3.606,5.223,4.151
		c2.448-6.785,3.424-14.102,2.826-21.238c-0.077-0.894,0.629-1.677,1.568-1.746c0.933-0.057,1.769,0.593,1.843,1.486
		c0.675,8.024-0.525,16.253-3.471,23.805l-0.408,1.049l-1.177,0.013C241.125,155.992,241.095,155.992,241.065,155.992z
		 M241.135,154.369h0.033H241.135z"/>
	<path style="fill:#F6C358;" d="M194.367,162.352c-0.568,0-1.127-0.269-1.451-0.76c-0.502-0.761-0.258-1.762,0.542-2.237
		c1.678-0.995,3.504-1.353,5.273-1.702c1.291-0.253,2.511-0.494,3.565-0.966c2.562-1.144,4.37-3.815,5.822-5.964
		c2.608-3.85,5.303-7.827,6.691-12.197c0.271-0.856,1.217-1.343,2.133-1.084c0.903,0.257,1.418,1.163,1.144,2.022
		c-1.525,4.801-4.354,8.974-7.086,13.011c-1.689,2.497-3.792,5.606-7.243,7.146c-1.421,0.637-2.899,0.928-4.33,1.207
		c-1.542,0.304-2.993,0.589-4.15,1.277C194.993,162.272,194.678,162.352,194.367,162.352z"/>
	<path style="fill:#F6C358;" d="M243.844,180.484c-0.889,0-1.642-0.653-1.705-1.508c-0.345-4.684,1.09-9.786,4.15-14.751
		c2.675-4.351,6.19-8.094,9.59-11.709c0.626-0.675,1.709-0.732,2.415-0.133c0.709,0.595,0.769,1.619,0.14,2.288
		c-3.287,3.498-6.685,7.117-9.189,11.189c-2.709,4.402-3.986,8.861-3.688,12.888c0.063,0.897-0.646,1.67-1.588,1.734
		C243.924,180.484,243.883,180.484,243.844,180.484z"/>
	<path style="fill:#F6C358;" d="M239.827,189.446c-5.895,0-11.958-1.917-18.134-4.104c-0.886-0.314-1.337-1.248-1.007-2.088
		c0.331-0.843,1.321-1.267,2.204-0.954c8.253,2.925,16.238,5.349,23.391,2.859c2.598-0.903,5.006-2.468,7.333-3.98l10.807-7.019
		c2.494-1.623,5.076-3.302,6.705-5.606c0.522-0.744,1.585-0.947,2.374-0.443c0.786,0.498,0.996,1.505,0.468,2.25
		c-1.993,2.821-4.979,4.763-7.61,6.474l-10.808,7.019c-2.501,1.626-5.089,3.309-8.092,4.354
		C244.954,189.078,242.406,189.446,239.827,189.446z"/>
	<path style="fill:#F6C358;" d="M250.902,206.488c-0.21,0-0.424-0.038-0.632-0.114c-4.826-1.819-6.976-6.87-6.966-11.069
		c0.01-4.088,1.582-7.802,3.474-11.884c1.652-3.558,3.277-7.054,3.448-10.603c0.044-0.89,0.756-1.692,1.785-1.546
		c0.947,0.038,1.675,0.798,1.632,1.692c-0.198,4.157-1.953,7.935-3.649,11.589c-1.819,3.917-3.257,7.298-3.267,10.759
		c-0.007,3.001,1.491,6.797,4.805,8.046c0.88,0.333,1.308,1.274,0.96,2.107C252.227,206.102,251.581,206.488,250.902,206.488z"/>
	<path style="fill:#F6C358;" d="M220.44,201.326c-0.588,0-1.164-0.288-1.481-0.808c-0.475-0.773-0.198-1.768,0.622-2.218
		c2.987-1.641,6.37-3.505,8.223-6.328c1.398-2.126,1.896-4.687,2.421-7.399c0.408-2.114,0.829-4.297,1.712-6.373
		c0.351-0.833,1.357-1.232,2.227-0.9c0.88,0.336,1.305,1.28,0.95,2.11c-0.752,1.775-1.127,3.704-1.521,5.748
		c-0.559,2.89-1.137,5.878-2.879,8.531c-2.307,3.505-6.246,5.676-9.413,7.418C221.028,201.256,220.734,201.326,220.44,201.326z"/>
	<path style="fill:#F6C358;" d="M277.386,182.249h-0.013c-0.946-0.006-1.705-0.738-1.699-1.635
		c0.077-9.542,6.099-18.966,14.984-23.456c0.826-0.421,1.869-0.127,2.317,0.669c0.445,0.792,0.127,1.775-0.705,2.196
		c-7.812,3.945-13.105,12.229-13.172,20.617C279.092,181.53,278.326,182.249,277.386,182.249z"/>
	<path style="fill:#F6C358;" d="M292.273,198.56c-0.916,0-1.675-0.685-1.712-1.56c-0.221-5.431,2.11-10.923,6.24-14.694
		c4.126-3.768,9.961-5.768,15.723-5.365c0.943,0.07,1.648,0.849,1.578,1.743c-0.073,0.894-0.95,1.575-1.839,1.496
		c-4.731-0.358-9.654,1.328-13.088,4.465c-3.435,3.138-5.377,7.71-5.19,12.229c0.037,0.896-0.702,1.651-1.645,1.686
		C292.317,198.56,292.294,198.56,292.273,198.56z"/>
	<path style="fill:#F6C358;" d="M252.019,224.795c-0.244,0-0.495-0.051-0.729-0.155c-0.856-0.38-1.224-1.347-0.819-2.158
		c2.685-5.406,7.721-10.039,14.184-13.046c5.287-2.449,11.49-3.891,18.974-4.408c0.926-0.095,1.762,0.605,1.832,1.502
		c0.067,0.894-0.642,1.67-1.585,1.737c-7.035,0.482-12.831,1.819-17.713,4.085c-5.768,2.681-10.243,6.769-12.597,11.513
		C253.277,224.45,252.661,224.795,252.019,224.795z"/>
	<path style="fill:#F6C358;" d="M285.12,217.757c-0.127,0-0.257-0.013-0.388-0.041c-9.824-2.161-17.893-10.613-19.187-20.091
		c-0.121-0.891,0.542-1.705,1.478-1.819c0.947-0.12,1.796,0.51,1.919,1.401c1.114,8.185,8.082,15.48,16.566,17.347
		c0.92,0.203,1.495,1.074,1.28,1.949C286.605,217.25,285.9,217.757,285.12,217.757z"/>
	<path style="fill:#F6C358;" d="M334.4,207.179c-0.19,0-0.381-0.028-0.572-0.092c-0.889-0.301-1.358-1.226-1.043-2.073
		c0.264-0.707-0.472-1.727-1.334-2.367c-0.464-0.346-0.966-0.644-1.468-0.945c-0.99-0.592-2.013-1.204-2.882-2.123
		c-1.823-1.92-2.552-4.75-2.161-8.407c0.074-0.71,0.178-1.423,0.285-2.136c0.261-1.759,0.505-3.419,0.264-5.001
		c-0.134-0.887,0.515-1.708,1.451-1.838c0.923-0.117,1.802,0.485,1.939,1.375c0.311,2.038,0.017,4.009-0.264,5.917
		c-0.1,0.669-0.197,1.337-0.271,2.006c-0.288,2.713,0.151,4.703,1.304,5.913c0.555,0.586,1.334,1.055,2.164,1.553
		c0.598,0.358,1.197,0.719,1.749,1.131c1.698,1.258,3.357,3.587,2.454,6.005C335.764,206.764,335.105,207.179,334.4,207.179z"/>
	<path style="fill:#F6C358;" d="M325.481,212.335c-0.307,0-0.619-0.079-0.899-0.241c-4.999-2.922-9.212-7.007-12.182-11.807
		c-0.345-0.558-0.675-1.132-1.007-1.702c-1.134-1.955-2.204-3.803-3.818-5.073c-0.726-0.573-0.823-1.597-0.221-2.288
		c0.612-0.681,1.692-0.776,2.414-0.209c2.11,1.667,3.387,3.872,4.624,6.008c0.318,0.545,0.632,1.09,0.963,1.623
		c2.685,4.347,6.497,8.042,11.025,10.685c0.803,0.472,1.054,1.47,0.559,2.234C326.616,212.062,326.053,212.335,325.481,212.335z"/>
	<path style="fill:#F6C358;" d="M310.377,168.36c-0.418,0-0.836-0.143-1.164-0.434c-1.705-1.496-3.625-2.735-5.658-4.05
		c-1.371-0.884-2.739-1.768-4.043-2.732c-4.283-3.172-6.788-6.632-7.443-10.29c-0.157-0.884,0.468-1.72,1.401-1.873
		c0.916-0.142,1.816,0.444,1.976,1.328c0.508,2.836,2.585,5.618,6.173,8.274c1.247,0.922,2.555,1.768,3.866,2.611
		c2.046,1.321,4.166,2.691,6.055,4.354c0.696,0.608,0.736,1.635,0.091,2.291C311.293,168.185,310.835,168.36,310.377,168.36z"/>
</g>
<g>
</g>
<g>
</g>
<g>
</g>
<g>
</g>
<g>
</g>
<g>
</g>
<g>
</g>
<g>
</g>
<g>
</g>
<g>
</g>
<g>
</g>
<g>
</g>
<g>
</g>
<g>
</g>
<g>
</g>
</svg>
