<svg height="512pt" viewBox="0 0 512 512" width="512pt" xmlns="http://www.w3.org/2000/svg" xmlns:xlink="http://www.w3.org/1999/xlink"><linearGradient id="a" gradientUnits="userSpaceOnUse" x1="0" x2="512" y1="256" y2="256"><stop offset="0" stop-color="#00f1ff"/><stop offset=".231" stop-color="#00d8ff"/><stop offset=".5138" stop-color="#00c0ff"/><stop offset=".7773" stop-color="#00b2ff"/><stop offset="1" stop-color="#00adff"/></linearGradient><path d="m512 256c0 141.386719-114.613281 256-256 256s-256-114.613281-256-256 114.613281-256 256-256 256 114.613281 256 256zm0 0" fill="url(#a)"/><g fill="#fff"><path d="m395.773438 131.144531c-16.535157-16.746093-39.316407-25.964843-64.148438-25.964843-41.589844 0-63.964844 20.546874-75.625 38.785156-11.660156-18.238282-34.035156-38.785156-75.625-38.785156-24.832031 0-47.613281 9.21875-64.148438 25.964843-17.320312 17.539063-26.476562 41.511719-26.476562 69.320313 0 17.941406 4.789062 35.789062 14.566406 54.0625-8.082031.234375-14.566406 6.839844-14.566406 14.980468 0 8.28125 6.714844 15 15 15h71.992188c5.726562 0 10.953124-3.261718 13.472656-8.40625l10.679687-21.820312 24.101563 54.023438c2.359375 5.285156 7.550781 8.742187 13.335937 8.882812.121094.003906.242188.003906.367188.003906 5.644531 0 10.824219-3.175781 13.382812-8.230468l15.765625-31.175782c2.757813 4.167969 7.441406 6.722656 12.507813 6.722656h36.53125c8.285156 0 15-6.71875 15-15 0-8.285156-6.714844-15-15-15h-27.476563l-8.601562-16.339843c-2.59375-4.933594-7.707032-8.015625-13.273438-8.015625-.039062 0-.082031 0-.121094 0-5.613281.046875-10.730468 3.222656-13.261718 8.234375l-14.609375 28.890625-24.320313-54.511719c-2.371094-5.320313-7.609375-8.78125-13.433594-8.886719-5.804687-.101562-11.175781 3.171875-13.738281 8.402344l-20.664062 42.226562h-27.925781c-13.253907-19.152343-19.710938-36.867187-19.710938-54.042968 0-39.050782 24.363281-65.285156 60.625-65.285156 23.179688 0 40.28125 8.652343 50.835938 25.722656 8.484374 13.71875 9.828124 28.078125 9.835937 28.144531.601563 7.8125 7.113281 13.886719 14.949219 13.886719 7.839844 0 14.351562-5.996094 14.953125-13.8125.015625-.140625 1.359375-14.5 9.839843-28.21875 10.554688-17.070313 27.65625-25.722656 50.835938-25.722656 36.265625 0 60.628906 26.234374 60.628906 65.285156 0 26.375-15.25 54.132812-47.984375 87.355468-5.816406 5.898438-5.746093 15.398438.15625 21.210938 2.921875 2.878906 6.726563 4.316406 10.527344 4.316406 3.875 0 7.75-1.492187 10.683594-4.472656 24.304687-24.664062 56.613281-62.734375 56.613281-108.410156 0-27.808594-9.152344-51.78125-26.476562-69.320313zm0 0"/><path d="m299.300781 329.21875-.296875.261719c-15.648437 13.726562-30.648437 26.890625-43.003906 39.820312-12.359375-12.933593-27.359375-26.097656-43.011719-39.824219-8.667969-7.605468-17.628906-15.46875-26.308593-23.449218-6.097657-5.605469-15.589844-5.207032-21.195313.894531-5.605469 6.097656-5.207031 15.585937.890625 21.191406 8.9375 8.214844 18.03125 16.195313 26.828125 23.914063 20.007813 17.550781 38.902344 34.125 51.109375 49.292968 5.917969 7.335938 17.457031 7.335938 23.371094 0 12.207031-15.167968 31.101562-31.742187 51.105468-49.289062l.296876-.261719c6.230468-5.460937 6.847656-14.941406 1.382812-21.167969-5.460938-6.226562-14.941406-6.847656-21.167969-1.382812zm0 0"/></g></svg>