<?xml version="1.0" encoding="iso-8859-1"?>
<!-- Generator: Adobe Illustrator 19.0.0, SVG Export Plug-In . SVG Version: 6.00 Build 0)  -->
<svg version="1.1" id="Layer_1" xmlns="http://www.w3.org/2000/svg" xmlns:xlink="http://www.w3.org/1999/xlink" x="0px" y="0px"
	 viewBox="0 0 511.998 511.998" style="enable-background:new 0 0 511.998 511.998;" xml:space="preserve">
<circle style="fill:#FF5B62;" cx="255.999" cy="255.999" r="255.999"/>
<ellipse style="fill:#ED4C54;" cx="256.199" cy="441.935" rx="110.803" ry="9.042"/>
<path style="fill:#EEF3F7;" d="M256.197,145.116c-24.56,0.219-85.248-23.025-102.274,1.24
	c-18.587,26.491-15.492,84.26-2.657,104.128c12.835,19.87,22.571,33.482,22.571,40.842c0,7.36-1.773,127.676-0.886,136.874
	c0.884,9.199,3.982,15.822,7.966,15.822c3.982,0,17.006-21.709,23.202-37.531c6.196-15.82,39.046-89.942,53.207-89.942
	c27.984,0,71.82,127.474,74.149,127.474c3.982,0,7.082-6.623,7.966-15.822s-0.886-129.515-0.886-136.874
	c0-7.358,9.737-20.973,22.571-40.842c12.835-19.868,15.93-77.637-2.657-104.128c-17.026-24.265-69.302,1.554-102.274-1.24h0.002
	V145.116z"/>
<g>
	<path style="fill:#FFFFFF;" d="M238.981,143.212c-24.611-2.379-58.686-0.649-71.77,6.987c-13.081,7.635-24.359,70.67-5.77,98.999
		c18.587,28.33,23.898,36.794,19.914,61.813c-3.982,25.018-6.626,119.21-0.436,133.008c-3.982,0-7.08-6.623-7.966-15.822
		c-0.884-9.199,0.886-129.515,0.886-136.872c0-7.36-9.737-20.973-22.571-40.842c-12.835-19.868-15.93-77.637,2.657-104.128
		c13.816-19.689,56.376-8.098,85.059-3.144L238.981,143.212z"/>
	<path style="fill:#FFFFFF;" d="M331.476,444.018c-15.503-36.54-40.933-135.708-74.61-127.449
		C278.668,316.569,321.146,445.819,331.476,444.018z"/>
</g>
<g>
	<path style="fill:#D9DADA;" d="M339.206,347.437c-0.308-27.84-0.651-52.881-0.651-56.115c0-7.36,9.737-20.973,22.571-40.842
		c7.075-10.956,11.189-33.432,10.343-55.836c-1.448,36.655-37.496,81.813-40.262,88.042c-2.77,6.229,7.761,41.894,7.997,64.73
		l0.002,0.02V347.437z"/>
	<path style="fill:#D9DADA;" d="M257.836,152.661c-16.267,0.536-33.745-8.696-43.092-3.364c0,0,22.671,4.914,35.824,9.404
		c23.473,8.012,46.703-14.515,61.954-11.28c-13.046-6.721-38.964,4.723-54.687,5.239v0.002H257.836z"/>
</g>
<g>
	<path style="fill:#FEFEFE;" d="M175.274,138.453c-19.407-17.822-36.77-17.822-54.986,0c18.216-17.822,18.216-35.185,0-54.984
		c18.216,19.799,35.579,19.799,54.986,0C155.867,103.268,155.867,120.634,175.274,138.453z"/>
	<path style="fill:#FEFEFE;" d="M304.041,62.327c11.163,10.253,21.151,10.253,31.631,0c-10.479,10.253-10.479,20.238,0,31.628
		c-10.479-11.391-20.468-11.391-31.631,0C315.204,82.564,315.204,72.577,304.041,62.327z"/>
	<path style="fill:#FEFEFE;" d="M377.436,182.912c7.228,6.634,13.692,6.634,20.474,0c-6.785,6.634-6.785,13.101,0,20.474
		c-6.785-7.373-13.249-7.373-20.474,0C384.664,196.012,384.664,189.548,377.436,182.912z"/>
	<path style="fill:#FEFEFE;" d="M77.909,219.954c11.163,10.253,21.151,10.253,31.631,0c-10.479,10.253-10.479,20.24,0,31.631
		c-10.479-11.391-20.468-11.391-31.631,0C89.072,240.194,89.072,230.205,77.909,219.954z"/>
</g>
<g>
</g>
<g>
</g>
<g>
</g>
<g>
</g>
<g>
</g>
<g>
</g>
<g>
</g>
<g>
</g>
<g>
</g>
<g>
</g>
<g>
</g>
<g>
</g>
<g>
</g>
<g>
</g>
<g>
</g>
</svg>
