<?xml version="1.0" encoding="iso-8859-1"?>
<!-- Generator: Adobe Illustrator 19.0.0, SVG Export Plug-In . SVG Version: 6.00 Build 0)  -->
<svg version="1.1" id="Capa_1" xmlns="http://www.w3.org/2000/svg" xmlns:xlink="http://www.w3.org/1999/xlink" x="0px" y="0px"
	 viewBox="0 0 491.52 491.52" style="enable-background:new 0 0 491.52 491.52;" xml:space="preserve">
<circle style="fill:#45B39C;" cx="245.76" cy="245.76" r="245.76"/>
<path style="opacity:0.1;enable-background:new    ;" d="M318.822,137.97c-9.731,0-18.744,3.055-26.176,8.231l-36.8-36.801h-20.173
	v37.69l-12.398,23.164l-13.937-13.936c-2.591-3.438-5.645-6.492-9.081-9.082l-0.001-0.001c-7.685-5.792-17.208-9.266-27.559-9.266
	c-20.07,0-35.635,16.845-37.12,18.945c-18.944,23.296-30.618,54.528-30.618,88.934c0,37.12,13.568,70.554,35.226,94.361
	c0,0,2.566,2.641,6.986,5.569l141.864,141.865c101.14-17.979,180.838-97.774,198.671-198.964L355.942,156.914
	C354.458,154.815,338.893,137.97,318.822,137.97z"/>
<path style="fill:#E56353;" d="M255.867,249.036v-11.154c0-5.55,5.446-9.602,10.688-7.782c10.675,3.706,22.024,4.618,30.537,4.618
	c7.538,0,12.848-0.704,13.478-0.795l-1.505-10.825c-0.354,0.041-31.47,4.102-49.733-8.705c-2.184-1.531-3.465-4.057-3.465-6.724
	v-98.294h-20.215v98.293c0,2.668-1.281,5.194-3.466,6.725c-18.264,12.802-49.382,8.741-49.732,8.705l-1.505,10.825
	c0.63,0.091,5.94,0.795,13.477,0.795c8.513,0,19.863-0.912,30.537-4.617c5.242-1.82,10.688,2.233,10.688,7.782v11.152
	c0,2.634-1.267,5.124-3.421,6.639c-18.258,12.84-49.427,8.774-49.777,8.736l-1.505,10.825c0.63,0.091,5.94,0.795,13.477,0.795
	c8.549,0,19.959-0.919,30.673-4.664c5.172-1.808,10.551,2.207,10.551,7.686v103.093h20.215V279.051c0-5.478,5.38-9.493,10.552-7.686
	c10.714,3.746,22.124,4.665,30.673,4.665c7.538,0,12.848-0.703,13.478-0.795l-1.505-10.825c-0.354,0.043-31.52,4.109-49.777-8.736
	C257.134,254.159,255.867,251.67,255.867,249.036z"/>
<g>
	<path style="fill:#FCD462;" d="M386.56,245.832c0-34.389-11.65-65.603-30.599-88.929c-1.52-2.083-17.061-18.926-37.115-18.926
		c-25.388,0-45.97,20.581-45.97,45.97c0,21.552,14.851,39.587,34.864,44.563c-7.851,4.724-13.119,13.301-13.119,23.131
		c0,5.301,1.549,10.23,4.188,14.402c-15.511,7.386-26.258,23.158-26.258,41.482c0,25.387,20.616,44.647,45.97,45.97
		c18.968,0.99,32.8-13.304,32.8-13.304C373.002,316.399,386.56,282.955,386.56,245.832z"/>
	<path style="fill:#FCD462;" d="M386.56,245.832c0-34.389-11.65-65.603-30.599-88.929c-1.52-2.083-17.061-18.926-37.115-18.926
		c-25.388,0-45.97,20.581-45.97,45.97c0,21.552,14.851,39.587,34.864,44.563c-7.851,4.724-13.119,13.301-13.119,23.131
		c0,5.301,1.549,10.23,4.188,14.402c-15.511,7.386-24.718,23.223-26.259,41.482c-2.783,32.964,20.268,45.595,45.971,45.97
		c18.991,0.277,32.799-13.305,32.799-13.305C373.002,316.399,386.56,282.955,386.56,245.832z"/>
</g>
<path style="fill:#F6C358;" d="M289.494,307.524c0-14.356,8.412-27.637,21.428-33.832l8.624-4.103l-5.104-8.073
	c-1.882-2.978-2.878-6.39-2.878-9.872c0-6.543,3.371-12.478,9.016-15.874l17.524-10.543l-19.849-4.934
	c-16.742-4.165-28.434-19.108-28.434-36.347c0-19.125,14.401-34.923,32.925-37.188c-1.284-0.181-2.582-0.308-3.901-0.308
	c-20.676,0-37.496,16.821-37.496,37.496c0,17.239,11.693,32.182,28.434,36.347l19.849,4.934l-17.524,10.543
	c-5.645,3.396-9.016,9.331-9.016,15.874c0,3.482,0.997,6.895,2.878,9.872l5.104,8.073l-8.624,4.103
	c-13.016,6.196-21.428,19.477-21.428,33.832c0,20.258,16.312,36.384,37.943,37.513c0.484,0.025,1.443,0.037,1.443,0.037
	c1.399,0,2.754-0.13,4.079-0.322C304.346,342.376,289.494,326.846,289.494,307.524z"/>
<path id="SVGCleanerId_0" style="fill:#FCD462;" d="M104.96,245.832c0-34.389,11.65-65.603,30.599-88.929
	c1.52-2.083,17.061-18.926,37.115-18.926c25.389,0,45.97,20.581,45.97,45.97c0,21.552-14.851,39.587-34.864,44.563
	c7.851,4.724,13.119,13.301,13.119,23.131c0,5.301-1.549,10.23-4.188,14.402c15.511,7.386,26.258,23.158,26.258,41.482
	c0,25.387-20.616,44.647-45.97,45.97c-18.968,0.99-32.8-13.304-32.8-13.304C118.518,316.399,104.96,282.955,104.96,245.832z"/>
<g>
	<path id="SVGCleanerId_0_1_" style="fill:#FCD462;" d="M104.96,245.832c0-34.389,11.65-65.603,30.599-88.929
		c1.52-2.083,17.061-18.926,37.115-18.926c25.389,0,45.97,20.581,45.97,45.97c0,21.552-14.851,39.587-34.864,44.563
		c7.851,4.724,13.119,13.301,13.119,23.131c0,5.301-1.549,10.23-4.188,14.402c15.511,7.386,26.258,23.158,26.258,41.482
		c0,25.387-20.616,44.647-45.97,45.97c-18.968,0.99-32.8-13.304-32.8-13.304C118.518,316.399,104.96,282.955,104.96,245.832z"/>
</g>
<path style="fill:#F6C358;" d="M202.026,307.524c0-14.356-8.412-27.637-21.428-33.832l-8.624-4.103l5.104-8.073
	c1.882-2.978,2.878-6.39,2.878-9.872c0-6.543-3.371-12.478-9.016-15.874l-17.524-10.543l19.849-4.934
	c16.742-4.165,28.434-19.108,28.434-36.347c0-19.125-14.401-34.923-32.925-37.188c1.284-0.181,2.582-0.308,3.901-0.308
	c20.676,0,37.496,16.821,37.496,37.496c0,17.239-11.693,32.182-28.434,36.347l-19.849,4.934l17.524,10.543
	c5.645,3.396,9.016,9.331,9.016,15.874c0,3.482-0.997,6.895-2.878,9.872l-5.104,8.073l8.624,4.103
	c13.016,6.196,21.428,19.477,21.428,33.832c0,20.258-16.312,36.384-37.943,37.513c-0.484,0.025-1.443,0.037-1.443,0.037
	c-1.399,0-2.754-0.13-4.079-0.322C187.174,342.376,202.026,326.846,202.026,307.524z"/>
<g>
</g>
<g>
</g>
<g>
</g>
<g>
</g>
<g>
</g>
<g>
</g>
<g>
</g>
<g>
</g>
<g>
</g>
<g>
</g>
<g>
</g>
<g>
</g>
<g>
</g>
<g>
</g>
<g>
</g>
</svg>
